<?xml version="1.0" standalone="no"?>
<!DOCTYPE svg PUBLIC "-//W3C//DTD SVG 20010904//EN"
 "http://www.w3.org/TR/2001/REC-SVG-20010904/DTD/svg10.dtd">
<svg version="1.0" xmlns="http://www.w3.org/2000/svg"
 width="2378.000000pt" height="2378.000000pt" viewBox="0 0 2378.000000 2378.000000"
 preserveAspectRatio="xMidYMid meet">
<metadata>
Created by potrace 1.14, written by Peter Selinger 2001-2017
</metadata>
<g transform="translate(0.000000,2378.000000) scale(0.100000,-0.100000)"
fill="#000000" stroke="none">
<path d="M15760 20849 c-398 -40 -706 -91 -785 -129 -108 -52 -107 -49 -30
-110 121 -96 275 -299 275 -362 0 -58 -72 -102 -132 -79 -16 6 -46 41 -80 93
-31 46 -75 105 -99 132 -54 61 -185 166 -206 166 -8 0 -87 -41 -174 -91 -137
-78 -168 -101 -229 -166 -85 -91 -185 -223 -231 -304 -126 -221 -242 -368
-498 -633 -235 -243 -348 -401 -606 -856 -49 -85 -98 -165 -109 -178 -41 -46
-153 -90 -309 -121 -161 -32 -252 -68 -325 -128 -37 -30 -57 -63 -131 -217
-75 -155 -96 -188 -136 -224 -57 -50 -57 -49 60 -127 221 -147 544 -227 1000
-245 120 -5 226 -14 248 -21 82 -28 110 -87 62 -134 -24 -24 -28 -25 -180 -25
-348 0 -672 57 -1030 182 -106 37 -271 113 -335 155 l-45 30 -70 -48 c-142
-94 -213 -196 -294 -419 -49 -134 -67 -167 -177 -327 -276 -401 -644 -1090
-851 -1597 -214 -523 -500 -1430 -692 -2188 -69 -273 -116 -396 -234 -615
-129 -239 -217 -479 -271 -741 -14 -67 -34 -141 -44 -164 -11 -24 -90 -131
-176 -238 -210 -261 -347 -449 -531 -727 -182 -275 -220 -348 -241 -463 -47
-254 -57 -297 -81 -342 -14 -27 -24 -50 -22 -52 7 -5 324 -54 459 -70 239 -29
416 -39 695 -39 394 0 717 29 1089 98 174 32 210 32 241 0 35 -34 34 -83 -3
-118 -33 -32 -145 -58 -422 -101 -680 -104 -1342 -101 -2019 11 l-164 27 -26
-34 c-14 -18 -45 -56 -68 -83 -68 -81 -201 -272 -296 -426 -274 -443 -427
-850 -427 -1132 0 -170 40 -272 139 -358 50 -43 61 -59 61 -84 0 -58 -118
-390 -173 -486 -46 -79 -61 -97 -134 -150 -193 -144 -360 -314 -422 -431 -18
-34 -43 -66 -57 -72 -26 -12 -6 -17 -349 87 -1245 377 -2601 658 -3650 754
-822 76 -1368 34 -1685 -130 -96 -50 -227 -154 -361 -288 -295 -296 -404 -568
-324 -808 61 -180 215 -454 352 -623 358 -443 1003 -843 2098 -1300 571 -239
1095 -435 1466 -549 544 -167 897 -232 1609 -297 508 -46 2417 -14 3950 66
206 11 3310 308 4184 400 153 17 306 30 340 30 89 0 104 7 108 43 2 18 13 37
28 49 47 34 982 344 1517 502 1758 519 3849 928 5313 1041 263 20 444 36 448
39 14 15 -1399 37 -2308 36 -470 -1 -863 -1 -872 -1 -27 1 -56 40 -67 90 -83
378 -142 664 -151 734 -14 118 1 268 52 487 2 10 -21 20 -87 38 -770 201
-1441 491 -2098 905 -184 116 -204 141 -152 192 46 46 83 36 245 -66 620 -392
1237 -665 1930 -853 112 -31 207 -53 211 -48 36 41 69 233 69 398 0 286 -76
512 -259 774 -141 201 -200 310 -266 485 -53 142 -91 299 -119 499 -14 95 -30
186 -36 202 -7 16 -47 157 -91 313 -49 174 -95 315 -118 365 -61 129 -93 232
-98 321 l-5 80 71 172 c39 95 80 205 90 246 66 257 14 491 -162 732 -28 39
-203 223 -388 410 -310 314 -339 346 -373 416 -21 43 -41 100 -44 129 l-7 53
-125 38 c-385 116 -707 328 -1159 764 -116 112 -137 145 -116 186 19 35 68 46
104 22 14 -9 80 -67 146 -129 393 -370 724 -566 1073 -639 134 -28 120 -38
200 148 140 323 206 542 286 952 139 705 152 1389 36 1884 -58 245 -250 752
-397 1048 -61 124 -64 133 -51 159 18 38 52 54 118 54 30 0 80 6 110 14 49 12
610 256 752 327 104 52 315 259 382 374 15 24 47 112 72 196 48 161 72 219
110 259 26 28 49 105 59 201 l7 64 -84 44 c-384 200 -701 538 -873 929 -51
115 -56 153 -23 176 53 37 128 5 160 -68 108 -243 215 -411 357 -558 155 -162
297 -268 496 -371 l80 -41 335 3 c184 1 397 -2 473 -8 350 -28 1046 -197 1386
-337 88 -37 503 -254 656 -344 106 -63 241 -152 345 -229 108 -81 188 -114
273 -115 64 -1 70 1 94 28 23 27 25 36 21 98 -11 149 -153 348 -529 743 -63
66 -197 221 -299 345 -221 270 -295 346 -462 470 -388 290 -604 389 -1523 702
-634 216 -677 235 -850 386 -83 73 -128 123 -184 205 -43 63 -58 101 -92 229
-15 59 -37 124 -48 145 -42 83 -117 129 -286 178 -127 36 -176 39 -382 21
-207 -18 -186 -20 -738 49 -374 47 -497 53 -685 34z m-9097 -14830 c195 -99
449 -194 647 -243 340 -83 501 -90 1340 -51 591 28 610 28 648 11 78 -35 114
-94 88 -144 -20 -39 -52 -49 -176 -57 -58 -3 -265 -18 -460 -32 -461 -35
-1044 -39 -1230 -10 -218 34 -444 103 -675 205 -184 81 -401 190 -419 211 -12
13 -20 36 -20 56 0 93 127 119 257 54z"/>
<path d="M21710 4973 c-294 -8 -981 -84 -1660 -184 -1144 -167 -2770 -523
-3975 -870 -510 -147 -1525 -473 -1512 -486 9 -8 562 -33 737 -33 205 0 295
-8 700 -65 391 -54 474 -62 1685 -160 722 -58 852 -65 1250 -65 480 0 822 21
1330 80 469 55 756 81 1585 145 621 48 770 62 945 90 83 13 184 27 225 30 446
39 587 133 622 414 14 118 5 387 -17 479 -15 67 -20 75 -49 87 -17 7 -74 56
-126 107 -202 199 -455 324 -797 394 -189 38 -491 50 -943 37z"/>
</g>
</svg>
